<svg version="1.1" id="Layer_1" xmlns="http://www.w3.org/2000/svg" xmlns:xlink="http://www.w3.org/1999/xlink" x="0px" y="0px"
	 viewBox="0 0 720 110" xml:space="preserve">
<style type="text/css">
	.st0{fill:#FFFFFF;}
</style>
<g>
	<g>
		<rect x="107.3" y="79.7" class="st0" width="10.7" height="10.8"/>
		<rect x="96.5" y="79.7" class="st0" width="10.7" height="10.8"/>
		<rect x="85.8" y="79.7" class="st0" width="10.7" height="10.8"/>
		<rect x="75.1" y="79.7" class="st0" width="10.7" height="10.8"/>
		<rect x="32.2" y="79.7" class="st0" width="10.7" height="10.8"/>
		<rect x="21.5" y="79.7" class="st0" width="10.7" height="10.8"/>
		<rect x="10.7" y="79.7" class="st0" width="10.7" height="10.8"/>
		<rect y="79.7" class="st0" width="10.7" height="10.8"/>
		<rect x="107.3" y="69" class="st0" width="10.7" height="10.8"/>
		<rect x="96.5" y="69" class="st0" width="10.7" height="10.8"/>
		<rect x="85.8" y="69" class="st0" width="10.7" height="10.8"/>
		<rect x="75.1" y="69" class="st0" width="10.7" height="10.8"/>
		<rect x="32.2" y="69" class="st0" width="10.7" height="10.8"/>
		<rect x="21.5" y="69" class="st0" width="10.7" height="10.8"/>
		<rect x="10.7" y="69" class="st0" width="10.7" height="10.8"/>
		<rect y="69" class="st0" width="10.7" height="10.8"/>
		<rect x="107.3" y="58.2" class="st0" width="10.7" height="10.8"/>
		<rect x="96.5" y="58.2" class="st0" width="10.7" height="10.8"/>
		<rect x="85.8" y="58.2" class="st0" width="10.7" height="10.8"/>
		<rect x="75.1" y="58.2" class="st0" width="10.7" height="10.8"/>
		<rect x="64.4" y="58.2" class="st0" width="10.7" height="10.8"/>
		<rect x="42.9" y="58.2" class="st0" width="10.7" height="10.8"/>
		<rect x="32.2" y="58.2" class="st0" width="10.7" height="10.8"/>
		<rect x="21.5" y="58.2" class="st0" width="10.7" height="10.8"/>
		<rect x="10.7" y="58.2" class="st0" width="10.7" height="10.8"/>
		<rect y="58.2" class="st0" width="10.7" height="10.8"/>
		<rect x="107.3" y="47.5" class="st0" width="10.7" height="10.8"/>
		<rect x="96.5" y="47.5" class="st0" width="10.7" height="10.8"/>
		<rect x="85.8" y="47.5" class="st0" width="10.7" height="10.8"/>
		<rect x="75.1" y="47.5" class="st0" width="10.7" height="10.8"/>
		<rect x="64.4" y="47.5" class="st0" width="10.7" height="10.8"/>
		<rect x="53.6" y="47.5" class="st0" width="10.7" height="10.8"/>
		<rect x="42.9" y="47.5" class="st0" width="10.7" height="10.8"/>
		<rect x="32.2" y="47.5" class="st0" width="10.7" height="10.8"/>
		<rect x="21.5" y="47.5" class="st0" width="10.7" height="10.8"/>
		<rect x="10.7" y="47.5" class="st0" width="10.7" height="10.8"/>
		<rect y="47.5" class="st0" width="10.7" height="10.8"/>
		<rect x="107.3" y="36.7" class="st0" width="10.7" height="10.8"/>
		<rect x="85.8" y="36.7" class="st0" width="10.7" height="10.8"/>
		<rect x="75.1" y="36.7" class="st0" width="10.7" height="10.8"/>
		<rect x="64.4" y="36.7" class="st0" width="10.7" height="10.8"/>
		<rect x="53.6" y="36.7" class="st0" width="10.7" height="10.8"/>
		<rect x="42.9" y="36.7" class="st0" width="10.7" height="10.8"/>
		<rect x="32.2" y="36.7" class="st0" width="10.7" height="10.8"/>
		<rect x="21.5" y="36.7" class="st0" width="10.7" height="10.8"/>
		<rect y="36.7" class="st0" width="10.7" height="10.8"/>
		<rect x="75.1" y="26" class="st0" width="10.7" height="10.8"/>
		<rect x="64.4" y="26" class="st0" width="10.7" height="10.8"/>
		<rect x="53.6" y="26" class="st0" width="10.7" height="10.8"/>
		<rect x="42.9" y="26" class="st0" width="10.7" height="10.8"/>
		<rect x="32.2" y="26" class="st0" width="10.7" height="10.8"/>
		<rect x="75.1" y="15.2" class="st0" width="10.7" height="10.8"/>
		<rect x="64.4" y="15.2" class="st0" width="10.7" height="10.8"/>
		<rect x="53.6" y="15.2" class="st0" width="10.7" height="10.8"/>
		<rect x="42.9" y="15.2" class="st0" width="10.7" height="10.8"/>
		<rect x="32.2" y="15.2" class="st0" width="10.7" height="10.8"/>
		<rect x="75.1" y="4.5" class="st0" width="10.7" height="10.8"/>
		<rect x="53.6" y="4.5" class="st0" width="10.7" height="10.8"/>
		<rect x="32.2" y="4.5" class="st0" width="10.7" height="10.8"/>
	</g>
	<g>
		<path class="st0" d="M130.6,93.4H188v11.5h-57.3V93.4z"/>
		<path class="st0" d="M227.3,5.3c8.3,0,14.9,2,19.6,5.9c4.7,3.9,7.1,9.4,7.1,16.3c0,5.1-1.4,9.3-4.3,12.5c-2.9,3.2-6.7,5-11.6,5.4
			v0.8c5.4,0.4,9.7,2.3,12.8,5.8c3.1,3.5,4.7,8.2,4.7,14.1c0,7.5-2.4,13.4-7.3,17.7c-4.8,4.3-11.5,6.5-19.9,6.5h-27.1V5.3H227.3z
			 M214,16.4v24.8h13.2c4.1,0,7.4-1.1,9.8-3.4c2.4-2.2,3.7-5.3,3.7-9c0-3.8-1.2-6.8-3.6-9c-2.4-2.2-5.7-3.4-9.9-3.4H214z M214,79.2
			h13.5c4.6,0,8.3-1.2,10.9-3.5c2.6-2.4,3.9-5.7,3.9-9.9s-1.3-7.6-3.9-10c-2.6-2.4-6.2-3.6-10.9-3.6H214V79.2z"/>
		<path class="st0" d="M269.1,25.4h13v41.3c0,9.1,4.2,13.6,12.6,13.6c8.7,0,13-4.5,13-13.6V25.4h12.9v41.3c0,8-2.2,14.1-6.7,18.5
			c-4.5,4.3-10.9,6.5-19.1,6.5c-8.1,0-14.4-2.2-18.9-6.6c-4.5-4.4-6.7-10.5-6.7-18.4V25.4z"/>
		<path class="st0" d="M337.9,25.4h12.3v11.2h1.1c0.9-3.9,2.9-7,6.1-9.2c3.2-2.2,7.2-3.3,12-3.3c6.9,0,12.3,2.1,16.3,6.4
			c3.9,4.3,5.9,10.3,5.9,17.9v4.3h-13.3v-3c0-4.6-1.2-8.1-3.7-10.7c-2.4-2.6-5.8-3.8-10-3.8c-4.2,0-7.5,1.3-9.9,3.9
			c-2.4,2.6-3.7,6.2-3.7,10.6v40.6h-13V25.4z"/>
		<path class="st0" d="M403.5,49.3c0-3.8,0.5-7.2,1.5-10.3c1-3.1,2.5-5.8,4.5-7.9c2-2.2,4.3-3.8,7.1-5c2.8-1.2,5.8-1.8,9.2-1.8
			c4.8,0,8.8,1.1,12,3.4c3.2,2.3,5.3,5.5,6.3,9.6h0.8V25.4h12.3v60.8c0,7.4-2.3,13.2-7,17.4c-4.7,4.2-11.1,6.3-19.3,6.3h-16.8V98.9
			h16.8c4.2,0,7.5-1.1,9.9-3.4c2.4-2.2,3.6-5.3,3.6-9.3v-1.9l0.5-12.4h-0.7c-1,4.1-3.1,7.3-6.4,9.6c-3.2,2.3-7.2,3.4-12,3.4
			c-3.4,0-6.4-0.6-9.1-1.8c-2.7-1.2-5-2.9-7-5c-1.9-2.2-3.4-4.8-4.5-7.9c-1.1-3.1-1.6-6.6-1.6-10.3V49.3z M416.6,59.7
			c0,4.3,1.2,7.7,3.7,10.2c2.5,2.5,5.8,3.7,10.1,3.7c4.3,0,7.7-1.3,10.2-3.8c2.5-2.5,3.7-5.9,3.7-10.2V49.4c0-4.3-1.2-7.7-3.7-10.2
			c-2.5-2.5-5.9-3.7-10.2-3.7c-4.2,0-7.6,1.2-10.1,3.7c-2.5,2.5-3.7,5.9-3.7,10.2V59.7z"/>
		<path class="st0" d="M499.2,5.3c8.3,0,14.9,2,19.6,5.9c4.7,3.9,7.1,9.4,7.1,16.3c0,5.1-1.4,9.3-4.3,12.5c-2.9,3.2-6.7,5-11.6,5.4
			v0.8c5.4,0.4,9.7,2.3,12.8,5.8c3.1,3.5,4.7,8.2,4.7,14.1c0,7.5-2.4,13.4-7.3,17.7c-4.8,4.3-11.5,6.5-19.9,6.5h-27.1V5.3H499.2z
			 M485.9,16.4v24.8h13.2c4.1,0,7.4-1.1,9.8-3.4c2.4-2.2,3.7-5.3,3.7-9c0-3.8-1.2-6.8-3.6-9c-2.4-2.2-5.7-3.4-9.9-3.4H485.9z
			 M485.9,79.2h13.5c4.6,0,8.3-1.2,10.9-3.5c2.6-2.4,3.9-5.7,3.9-9.9s-1.3-7.6-3.9-10c-2.6-2.4-6.2-3.6-10.9-3.6h-13.5V79.2z"/>
		<path class="st0" d="M540.4,90.5V78.7h23.5V37.1h-20.5V25.4h33v53.2h19.1v11.8H540.4z M567.1,0h2.7c2.4,0,4.4,0.7,5.9,2.1
			c1.5,1.4,2.2,3.2,2.2,5.5c0,2.3-0.7,4.1-2.2,5.4c-1.5,1.3-3.5,2-5.9,2h-2.7c-2.4,0-4.4-0.7-5.8-2c-1.5-1.3-2.2-3.2-2.2-5.4
			c0-2.3,0.7-4.1,2.2-5.5C562.8,0.7,564.7,0,567.1,0z"/>
		<path class="st0" d="M596.5,25.4h18.3V5.3h13v20.1h24.9v11.7h-24.9v34.7c0,2.1,0.6,3.8,1.9,5c1.3,1.2,3,1.8,5.3,1.8h16.5v11.8
			h-17.1c-6.1,0-10.8-1.7-14.3-5.1c-3.5-3.4-5.3-7.9-5.3-13.6V37.1h-18.3V25.4z"/>
		<path class="st0" d="M690.6,91.7c-7.2,0-13.1-1.6-17.6-4.7c-4.5-3.1-7.1-7.4-7.7-12.8h13.5c0.5,2.1,1.8,3.8,4,5.1
			c2.2,1.3,4.8,1.9,8,1.9h4.2c3.9,0,6.9-0.8,9-2.4c2.2-1.6,3.2-3.7,3.2-6.5c0-4.7-3.5-7.6-10.4-8.5l-9.4-1.3c-7-0.9-12.2-2.9-15.5-6
			c-3.3-3.2-5-7.6-5-13.2c0-6,2.1-10.6,6.3-14c4.2-3.3,10.2-5,18-5h4.1c6.8,0,12.4,1.5,16.7,4.6c4.3,3,6.8,7.2,7.6,12.4h-13.3
			c-0.5-2-1.7-3.5-3.7-4.7c-2-1.1-4.4-1.7-7.3-1.7h-4.1c-3.7,0-6.5,0.7-8.5,2.1c-2,1.4-3,3.4-3,6.2c0,2.3,0.7,4.1,2.2,5.3
			c1.5,1.3,3.8,2.1,7,2.5l9.7,1.3c7.4,1,12.8,3.1,16.3,6.3c3.5,3.2,5.2,7.6,5.2,13.5c0,6.3-2.2,11.2-6.5,14.6
			c-4.3,3.4-10.5,5.1-18.6,5.1H690.6z"/>
	</g>
</g>
</svg>
